<mxfile host="app.diagrams.net" agent="Mozilla/5.0 (Windows NT 10.0; Win64; x64) AppleWebKit/537.36 (KHTML, like Gecko) Chrome/135.0.0.0 Safari/537.36 Edg/135.0.0.0" version="27.1.4">
  <diagram name="PÃ¡gina-1" id="sPuBkT5-31xZ2MH82qSr">
    <mxGraphModel dx="1418" dy="756" grid="1" gridSize="10" guides="1" tooltips="1" connect="1" arrows="1" fold="1" page="1" pageScale="1" pageWidth="2000" pageHeight="2000" math="0" shadow="0">
      <root>
        <mxCell id="0" />
        <mxCell id="1" parent="0" />
        <mxCell id="fcKy92MaBOGYKZsUQRH_-28" value="1. resgatarVantagem()" style="verticalAlign=bottom;edgeStyle=elbowEdgeStyle;elbow=vertical;curved=0;rounded=0;endArrow=block;" parent="1" edge="1">
          <mxGeometry relative="1" as="geometry">
            <Array as="points">
              <mxPoint x="987" y="927" />
            </Array>
            <mxPoint x="696.8235294117646" y="926.9999999999998" as="sourcePoint" />
            <mxPoint x="1200.4999999999998" y="927" as="targetPoint" />
          </mxGeometry>
        </mxCell>
        <mxCell id="fcKy92MaBOGYKZsUQRH_-32" value="3. resgatarVantagem(resgateDTO)" style="verticalAlign=bottom;edgeStyle=elbowEdgeStyle;elbow=vertical;curved=0;rounded=0;endArrow=block;" parent="1" edge="1">
          <mxGeometry relative="1" as="geometry">
            <Array as="points">
              <mxPoint x="1609" y="1077" />
            </Array>
            <mxPoint x="1492.75" y="1077" as="sourcePoint" />
            <mxPoint x="1707.9999999999995" y="1076.9999999999998" as="targetPoint" />
          </mxGeometry>
        </mxCell>
        <mxCell id="fcKy92MaBOGYKZsUQRH_-34" value="4. transacaoRepository.save(transacao)" style="verticalAlign=bottom;edgeStyle=elbowEdgeStyle;elbow=horizontal;curved=0;rounded=0;endArrow=block;" parent="1" edge="1">
          <mxGeometry x="0.0847" y="9" relative="1" as="geometry">
            <Array as="points">
              <mxPoint x="1821" y="1129" />
            </Array>
            <mxPoint x="1707.8235294117649" y="1129" as="sourcePoint" />
            <mxPoint x="1916.5" y="1129" as="targetPoint" />
            <mxPoint as="offset" />
          </mxGeometry>
        </mxCell>
        <mxCell id="fcKy92MaBOGYKZsUQRH_-36" value="5. resposta(transacaoRepository.save)" style="verticalAlign=bottom;edgeStyle=elbowEdgeStyle;elbow=vertical;curved=0;rounded=0;dashed=1;dashPattern=2 3;endArrow=block;entryX=1.2;entryY=0.605;entryDx=0;entryDy=0;entryPerimeter=0;" parent="1" target="fcKy92MaBOGYKZsUQRH_-60" edge="1">
          <mxGeometry relative="1" as="geometry">
            <Array as="points">
              <mxPoint x="1824" y="1181" />
            </Array>
            <mxPoint x="1750" y="1180" as="targetPoint" />
            <mxPoint x="1916.5" y="1181.0000000000002" as="sourcePoint" />
          </mxGeometry>
        </mxCell>
        <mxCell id="fcKy92MaBOGYKZsUQRH_-38" value="6. resposta(transacaoRepository.save)" style="verticalAlign=bottom;edgeStyle=elbowEdgeStyle;elbow=vertical;curved=0;rounded=0;dashed=1;dashPattern=2 3;endArrow=block;" parent="1" target="fcKy92MaBOGYKZsUQRH_-57" edge="1">
          <mxGeometry relative="1" as="geometry">
            <Array as="points">
              <mxPoint x="1612" y="1233" />
            </Array>
            <mxPoint x="1707.9999999999995" y="1233" as="sourcePoint" />
            <mxPoint x="1530" y="1233" as="targetPoint" />
          </mxGeometry>
        </mxCell>
        <mxCell id="fcKy92MaBOGYKZsUQRH_-40" value="7. resposta(transacaoRepository.save)" style="verticalAlign=bottom;edgeStyle=elbowEdgeStyle;elbow=vertical;curved=0;rounded=0;dashed=1;dashPattern=2 3;endArrow=block;" parent="1" target="fcKy92MaBOGYKZsUQRH_-54" edge="1">
          <mxGeometry relative="1" as="geometry">
            <Array as="points">
              <mxPoint x="1359" y="1285" />
            </Array>
            <mxPoint x="1493" y="1285.0000000000002" as="sourcePoint" />
            <mxPoint x="1200.5909090909092" y="1285" as="targetPoint" />
          </mxGeometry>
        </mxCell>
        <mxCell id="fcKy92MaBOGYKZsUQRH_-42" value="8. alert(Resgate realizado!)" style="verticalAlign=bottom;edgeStyle=elbowEdgeStyle;elbow=vertical;curved=0;rounded=0;dashed=1;dashPattern=2 3;endArrow=block;" parent="1" edge="1">
          <mxGeometry relative="1" as="geometry">
            <Array as="points">
              <mxPoint x="990" y="1337" />
            </Array>
            <mxPoint x="1200.4999999999998" y="1337" as="sourcePoint" />
            <mxPoint x="696.8235294117646" y="1337" as="targetPoint" />
          </mxGeometry>
        </mxCell>
        <mxCell id="fcKy92MaBOGYKZsUQRH_-46" value="2. alert(&quot;Saldo Insuficiente!&quot;)" style="verticalAlign=bottom;edgeStyle=elbowEdgeStyle;elbow=vertical;curved=0;rounded=0;dashed=1;dashPattern=2 3;endArrow=block;" parent="1" edge="1">
          <mxGeometry relative="1" as="geometry">
            <Array as="points">
              <mxPoint x="990" y="1487" />
            </Array>
            <mxPoint x="1200.4999999999998" y="1486.9999999999998" as="sourcePoint" />
            <mxPoint x="696.8235294117646" y="1487" as="targetPoint" />
          </mxGeometry>
        </mxCell>
        <mxCell id="fcKy92MaBOGYKZsUQRH_-48" value="Aluno" style="shape=umlActor;verticalLabelPosition=bottom;verticalAlign=top;html=1;outlineConnect=0;" parent="1" vertex="1">
          <mxGeometry x="676.58" y="810" width="30" height="60" as="geometry" />
        </mxCell>
        <mxCell id="fcKy92MaBOGYKZsUQRH_-52" style="edgeStyle=orthogonalEdgeStyle;rounded=0;orthogonalLoop=1;jettySize=auto;html=1;endArrow=none;startFill=0;entryX=0.5;entryY=0;entryDx=0;entryDy=0;dashed=1;dashPattern=8 8;" parent="1" source="fcKy92MaBOGYKZsUQRH_-51" target="fcKy92MaBOGYKZsUQRH_-54" edge="1">
          <mxGeometry relative="1" as="geometry">
            <mxPoint x="1200" y="910" as="targetPoint" />
          </mxGeometry>
        </mxCell>
        <mxCell id="fcKy92MaBOGYKZsUQRH_-51" value=":VantagemView" style="rounded=0;whiteSpace=wrap;html=1;" parent="1" vertex="1">
          <mxGeometry x="1145" y="810" width="120" height="60" as="geometry" />
        </mxCell>
        <mxCell id="fcKy92MaBOGYKZsUQRH_-54" value="" style="rounded=0;whiteSpace=wrap;html=1;" parent="1" vertex="1">
          <mxGeometry x="1200" y="910" width="10" height="610" as="geometry" />
        </mxCell>
        <mxCell id="fcKy92MaBOGYKZsUQRH_-25" value="alt" style="shape=umlFrame;pointerEvents=0;dropTarget=0;strokeColor=#000000;height=20;width=30" parent="1" vertex="1">
          <mxGeometry x="744" y="999" width="1196" height="508" as="geometry" />
        </mxCell>
        <mxCell id="fcKy92MaBOGYKZsUQRH_-26" value="[saldo suficiente]" style="text;strokeColor=none;fillColor=none;align=center;verticalAlign=middle;whiteSpace=wrap;fontSize=14;" parent="fcKy92MaBOGYKZsUQRH_-25" vertex="1">
          <mxGeometry x="30.304054054054053" width="1165.6959459459458" height="20" as="geometry" />
        </mxCell>
        <mxCell id="fcKy92MaBOGYKZsUQRH_-27" value="[saldo insuficiente]" style="shape=line;dashed=1;whiteSpace=wrap;verticalAlign=top;labelPosition=center;verticalLabelPosition=middle;align=center;strokeColor=light-dark(#6C6C6C,#535353);fontSize=14;" parent="fcKy92MaBOGYKZsUQRH_-25" vertex="1">
          <mxGeometry y="363" width="1196" height="4" as="geometry" />
        </mxCell>
        <mxCell id="fcKy92MaBOGYKZsUQRH_-56" style="edgeStyle=orthogonalEdgeStyle;rounded=0;orthogonalLoop=1;jettySize=auto;html=1;endArrow=none;startFill=0;dashed=1;dashPattern=8 8;" parent="1" source="fcKy92MaBOGYKZsUQRH_-55" target="fcKy92MaBOGYKZsUQRH_-57" edge="1">
          <mxGeometry relative="1" as="geometry">
            <mxPoint x="1500" y="960.0000000000002" as="targetPoint" />
          </mxGeometry>
        </mxCell>
        <mxCell id="fcKy92MaBOGYKZsUQRH_-55" value=":TransacaoController" style="rounded=0;whiteSpace=wrap;html=1;" parent="1" vertex="1">
          <mxGeometry x="1439" y="810" width="120" height="60" as="geometry" />
        </mxCell>
        <mxCell id="fcKy92MaBOGYKZsUQRH_-57" value="" style="rounded=0;whiteSpace=wrap;html=1;" parent="1" vertex="1">
          <mxGeometry x="1494" y="960" width="10" height="490" as="geometry" />
        </mxCell>
        <mxCell id="fcKy92MaBOGYKZsUQRH_-59" style="edgeStyle=orthogonalEdgeStyle;rounded=0;orthogonalLoop=1;jettySize=auto;html=1;endArrow=none;startFill=0;dashed=1;dashPattern=8 8;" parent="1" source="fcKy92MaBOGYKZsUQRH_-58" target="fcKy92MaBOGYKZsUQRH_-60" edge="1">
          <mxGeometry relative="1" as="geometry">
            <mxPoint x="1720" y="930" as="targetPoint" />
          </mxGeometry>
        </mxCell>
        <mxCell id="fcKy92MaBOGYKZsUQRH_-58" value=":TransacaoRepository" style="rounded=0;whiteSpace=wrap;html=1;" parent="1" vertex="1">
          <mxGeometry x="1653" y="810" width="120" height="60" as="geometry" />
        </mxCell>
        <mxCell id="fcKy92MaBOGYKZsUQRH_-60" value="" style="rounded=0;whiteSpace=wrap;html=1;" parent="1" vertex="1">
          <mxGeometry x="1708" y="1060" width="10" height="200" as="geometry" />
        </mxCell>
        <mxCell id="vztoHtuCxGVVbcZvMwQ3-3" style="edgeStyle=orthogonalEdgeStyle;rounded=0;orthogonalLoop=1;jettySize=auto;html=1;endArrow=none;startFill=0;dashed=1;dashPattern=8 8;" parent="1" source="vztoHtuCxGVVbcZvMwQ3-1" target="vztoHtuCxGVVbcZvMwQ3-4" edge="1">
          <mxGeometry relative="1" as="geometry">
            <mxPoint x="1910" y="960" as="targetPoint" />
          </mxGeometry>
        </mxCell>
        <mxCell id="vztoHtuCxGVVbcZvMwQ3-1" value=":TransacaoModel" style="rounded=0;whiteSpace=wrap;html=1;" parent="1" vertex="1">
          <mxGeometry x="1863" y="810" width="120" height="60" as="geometry" />
        </mxCell>
        <mxCell id="vztoHtuCxGVVbcZvMwQ3-4" value="" style="rounded=0;whiteSpace=wrap;html=1;" parent="1" vertex="1">
          <mxGeometry x="1918" y="1100" width="10" height="110" as="geometry" />
        </mxCell>
        <mxCell id="vztoHtuCxGVVbcZvMwQ3-5" value="" style="endArrow=none;html=1;rounded=0;entryX=0.5;entryY=1;entryDx=0;entryDy=0;dashed=1;dashPattern=8 8;" parent="1" target="fcKy92MaBOGYKZsUQRH_-57" edge="1">
          <mxGeometry width="50" height="50" relative="1" as="geometry">
            <mxPoint x="1500" y="1600" as="sourcePoint" />
            <mxPoint x="1520" y="1410" as="targetPoint" />
          </mxGeometry>
        </mxCell>
        <mxCell id="vztoHtuCxGVVbcZvMwQ3-6" value="" style="endArrow=none;html=1;rounded=0;entryX=0.5;entryY=1;entryDx=0;entryDy=0;dashed=1;dashPattern=8 8;" parent="1" target="fcKy92MaBOGYKZsUQRH_-54" edge="1">
          <mxGeometry width="50" height="50" relative="1" as="geometry">
            <mxPoint x="1205" y="1600" as="sourcePoint" />
            <mxPoint x="1570" y="1410" as="targetPoint" />
          </mxGeometry>
        </mxCell>
        <mxCell id="vztoHtuCxGVVbcZvMwQ3-7" value="" style="endArrow=none;html=1;rounded=0;entryX=0.5;entryY=1;entryDx=0;entryDy=0;dashed=1;dashPattern=8 8;" parent="1" target="fcKy92MaBOGYKZsUQRH_-60" edge="1">
          <mxGeometry width="50" height="50" relative="1" as="geometry">
            <mxPoint x="1713" y="1600" as="sourcePoint" />
            <mxPoint x="1460" y="1340" as="targetPoint" />
          </mxGeometry>
        </mxCell>
        <mxCell id="vztoHtuCxGVVbcZvMwQ3-8" value="" style="endArrow=none;html=1;rounded=0;entryX=0.5;entryY=1;entryDx=0;entryDy=0;dashed=1;dashPattern=8 8;" parent="1" target="vztoHtuCxGVVbcZvMwQ3-4" edge="1">
          <mxGeometry width="50" height="50" relative="1" as="geometry">
            <mxPoint x="1930" y="1600" as="sourcePoint" />
            <mxPoint x="1830" y="1290" as="targetPoint" />
          </mxGeometry>
        </mxCell>
        <mxCell id="9Hm2z0nSF3GJGM9ksLW9-1" value="" style="endArrow=none;html=1;rounded=0;exitX=0.5;exitY=0;exitDx=0;exitDy=0;dashed=1;dashPattern=8 8;" parent="1" edge="1">
          <mxGeometry width="50" height="50" relative="1" as="geometry">
            <mxPoint x="691.5799999999999" y="920" as="sourcePoint" />
            <mxPoint x="692" y="900" as="targetPoint" />
          </mxGeometry>
        </mxCell>
        <mxCell id="9Hm2z0nSF3GJGM9ksLW9-3" value="" style="rounded=0;whiteSpace=wrap;html=1;" parent="1" vertex="1">
          <mxGeometry x="686.58" y="920" width="10" height="600" as="geometry" />
        </mxCell>
        <mxCell id="9Hm2z0nSF3GJGM9ksLW9-4" value="" style="endArrow=none;html=1;rounded=0;entryX=0.5;entryY=1;entryDx=0;entryDy=0;dashed=1;dashPattern=8 8;" parent="1" target="9Hm2z0nSF3GJGM9ksLW9-3" edge="1">
          <mxGeometry width="50" height="50" relative="1" as="geometry">
            <mxPoint x="690" y="1590" as="sourcePoint" />
            <mxPoint x="870" y="1490" as="targetPoint" />
          </mxGeometry>
        </mxCell>
        <mxCell id="vXxvxt5KcdFki-orMWLI-1" value="2. POSTÂ api/transacoes/resgatar-vantagem(vantagemId, valor)" style="verticalAlign=bottom;edgeStyle=elbowEdgeStyle;elbow=vertical;curved=0;rounded=0;endArrow=block;fontSize=10;exitX=-0.1;exitY=0.239;exitDx=0;exitDy=0;exitPerimeter=0;entryX=0.1;entryY=0.198;entryDx=0;entryDy=0;entryPerimeter=0;" edge="1" parent="1">
          <mxGeometry x="0.0168" relative="1" as="geometry">
            <Array as="points" />
            <mxPoint x="1200" y="1050" as="sourcePoint" />
            <mxPoint x="1496" y="1051" as="targetPoint" />
            <mxPoint as="offset" />
          </mxGeometry>
        </mxCell>
      </root>
    </mxGraphModel>
  </diagram>
</mxfile>
